<svg width="14" height="7" viewBox="0 0 14 7" fill="none" xmlns="http://www.w3.org/2000/svg">
<path d="M0.308162 0.267679C0.505537 0.0962844 0.773199 0 1.05229 0C1.33138 0 1.59904 0.0962844 1.79641 0.267679L7.00635 4.7932L12.2163 0.267679C12.4148 0.101142 12.6807 0.00899045 12.9566 0.0110735C13.2326 0.0131565 13.4966 0.109307 13.6917 0.278816C13.8869 0.448325 13.9976 0.677629 14 0.917342C14.0024 1.15705 13.8963 1.388 13.7045 1.56042L7.75048 6.73232C7.55311 6.90372 7.28544 7 7.00635 7C6.72727 7 6.4596 6.90372 6.26223 6.73232L0.308162 1.56042C0.110846 1.38898 0 1.15648 0 0.914052C0 0.671626 0.110846 0.439126 0.308162 0.267679Z" fill="#C0D01E"/>
</svg>
