<svg width="9" height="18" viewBox="0 0 9 18" fill="none" xmlns="http://www.w3.org/2000/svg">
<path d="M0.344159 17.6038C0.123794 17.35 -4.34541e-08 17.0059 -5.9139e-08 16.6471C-7.48239e-08 16.2882 0.123794 15.9441 0.344159 15.6903L6.16269 8.99183L0.344158 2.29334C0.130039 2.03811 0.0115584 1.69629 0.0142366 1.34147C0.0169148 0.98666 0.140537 0.647251 0.358477 0.396351C0.576417 0.145452 0.871237 0.00313564 1.17944 5.14469e-05C1.48764 -0.00303084 1.78456 0.133367 2.00626 0.379869L8.65584 8.0351C8.87621 8.28886 9 8.633 9 8.99183C9 9.35066 8.87621 9.6948 8.65584 9.94856L2.00626 17.6038C1.78583 17.8575 1.4869 18 1.17521 18C0.86352 18 0.564591 17.8575 0.344159 17.6038Z" fill="#C0D01E"/>
</svg>
