<svg width="36" height="55" viewBox="0 0 36 55" fill="none" xmlns="http://www.w3.org/2000/svg">
<path d="M29.5095 48.7093L35.4545 48.7093L35.4545 55L29.5095 55L29.5095 48.7093Z" fill="#C6D339"/>
<path d="M29.5095 38.9675L35.4545 38.9675L35.4545 45.2583L29.5095 45.2583L29.5095 38.9675Z" fill="#B3B933"/>
<path d="M29.5095 29.2339L35.4545 29.2339L35.4545 35.5246L29.5095 35.5246L29.5095 29.2339Z" fill="#9F9F2F"/>
<path d="M29.5095 19.4837L35.4545 19.4837L35.4545 25.7744L29.5095 25.7744L29.5095 19.4837Z" fill="#888529"/>
<path d="M29.5095 9.74184L35.4545 9.74184L35.4545 16.0326L29.5095 16.0326L29.5095 9.74184Z" fill="#777325"/>
<path d="M29.5095 5.19731e-07L35.4545 0L35.4545 6.29072L29.5095 6.29072L29.5095 5.19731e-07Z" fill="#686420"/>
<path d="M10.0881 29.2339L16.0331 29.2339L16.0331 35.5246L10.0881 35.5246L10.0881 29.2339Z" fill="#9F9F2F"/>
<path d="M10.0881 19.4837L16.0331 19.4837L16.0331 25.7744L10.0881 25.7744L10.0881 19.4837Z" fill="#888529"/>
<path d="M10.0881 9.74184L16.0331 9.74184L16.0331 16.0326L10.0881 16.0326L10.0881 9.74184Z" fill="#777325"/>
<path d="M10.0881 5.19731e-07L16.0331 0L16.0331 6.29072L10.0881 6.29072L10.0881 5.19731e-07Z" fill="#686420"/>
<path d="M19.6819 19.4837L25.6269 19.4837L25.6269 25.7744L19.6819 25.7744L19.6819 19.4837Z" fill="#888529"/>
<path d="M19.6819 9.74184L25.6269 9.74184L25.6269 16.0326L19.6819 16.0326L19.6819 9.74184Z" fill="#777325"/>
<path d="M19.6819 5.19731e-07L25.6269 0L25.6269 6.29072L19.6819 6.29072L19.6819 5.19731e-07Z" fill="#686420"/>
<path d="M0.485833 9.74184L6.43086 9.74184L6.43086 16.0326L0.485834 16.0326L0.485833 9.74184Z" fill="#777325"/>
<path d="M0.485833 5.19731e-07L6.43086 0L6.43086 6.29072L0.485834 6.29072L0.485833 5.19731e-07Z" fill="#686420"/>
</svg>
