<svg width="47" height="6" viewBox="0 0 47 6" fill="none" xmlns="http://www.w3.org/2000/svg">
<path d="M5.32733 5.0666L5.32733 0.0355721L0.0678434 0.0355727L0.0678468 5.06661L5.32733 5.0666Z" fill="#C7D43A"/>
<path d="M13.4652 5.08182L13.4652 0.0507889L8.20575 0.0507895L8.20575 5.08182L13.4652 5.08182Z" fill="#B3BA35"/>
<path d="M21.6027 5.03791L21.6027 0.00688171L16.3432 0.00688236L16.3432 5.03791L21.6027 5.03791Z" fill="#A0A02E"/>
<path d="M29.7415 5.05336L29.7415 0.0223312L24.4821 0.0223319L24.4821 5.05336L29.7415 5.05336Z" fill="#898629"/>
<path d="M37.8799 5.06861L37.8799 0.0375786L32.6204 0.0375792L32.6204 5.06861L37.8799 5.06861Z" fill="#777325"/>
<path d="M46.0174 5.08396L46.0174 0.0529289L40.7579 0.0529296L40.7579 5.08396L46.0174 5.08396Z" fill="#68631F"/>
</svg>
